<mxfile host="app.diagrams.net" agent="Mozilla/5.0 (Macintosh; Intel Mac OS X 10_15_7) AppleWebKit/537.36 (KHTML, like Gecko) Chrome/129.0.0.0 Safari/537.36" version="28.0.5">
  <diagram name="ページ1" id="xtR3QMY_ivg9KzAQHW-j">
    <mxGraphModel dx="1860" dy="636" grid="1" gridSize="10" guides="1" tooltips="1" connect="1" arrows="1" fold="1" page="1" pageScale="1" pageWidth="827" pageHeight="1169" math="0" shadow="0">
      <root>
        <mxCell id="0" />
        <mxCell id="1" parent="0" />
        <mxCell id="JZybzeYJvGHH00LdQQcP-5" value="" style="rounded=1;whiteSpace=wrap;html=1;" parent="1" vertex="1">
          <mxGeometry x="-40" y="360" width="200" height="210" as="geometry" />
        </mxCell>
        <mxCell id="ZU2mIR0JqzNXLWRJzjO4-2" value="" style="rounded=1;whiteSpace=wrap;html=1;" vertex="1" parent="1">
          <mxGeometry x="309" y="360" width="211" height="210" as="geometry" />
        </mxCell>
        <mxCell id="ZU2mIR0JqzNXLWRJzjO4-15" style="edgeStyle=orthogonalEdgeStyle;rounded=0;orthogonalLoop=1;jettySize=auto;html=1;exitX=0.5;exitY=1;exitDx=0;exitDy=0;entryX=0.5;entryY=0;entryDx=0;entryDy=0;" edge="1" parent="1" source="ZU2mIR0JqzNXLWRJzjO4-3" target="ZU2mIR0JqzNXLWRJzjO4-6">
          <mxGeometry relative="1" as="geometry" />
        </mxCell>
        <mxCell id="ZU2mIR0JqzNXLWRJzjO4-3" value="チケット" style="rounded=0;whiteSpace=wrap;html=1;" vertex="1" parent="1">
          <mxGeometry x="249" y="640" width="80" height="40" as="geometry" />
        </mxCell>
        <mxCell id="ZU2mIR0JqzNXLWRJzjO4-14" style="edgeStyle=orthogonalEdgeStyle;rounded=0;orthogonalLoop=1;jettySize=auto;html=1;exitX=0.5;exitY=1;exitDx=0;exitDy=0;entryX=0.25;entryY=0;entryDx=0;entryDy=0;" edge="1" parent="1" source="ZU2mIR0JqzNXLWRJzjO4-6" target="ZU2mIR0JqzNXLWRJzjO4-7">
          <mxGeometry relative="1" as="geometry" />
        </mxCell>
        <mxCell id="ZU2mIR0JqzNXLWRJzjO4-6" value="コード" style="rounded=0;whiteSpace=wrap;html=1;" vertex="1" parent="1">
          <mxGeometry x="249" y="730" width="80" height="40" as="geometry" />
        </mxCell>
        <mxCell id="ZU2mIR0JqzNXLWRJzjO4-7" value="プロダクト" style="rounded=0;whiteSpace=wrap;html=1;" vertex="1" parent="1">
          <mxGeometry x="374" y="950" width="80" height="40" as="geometry" />
        </mxCell>
        <mxCell id="ZU2mIR0JqzNXLWRJzjO4-12" style="edgeStyle=orthogonalEdgeStyle;rounded=0;orthogonalLoop=1;jettySize=auto;html=1;exitX=0.5;exitY=1;exitDx=0;exitDy=0;entryX=0.5;entryY=0;entryDx=0;entryDy=0;" edge="1" parent="1" source="ZU2mIR0JqzNXLWRJzjO4-8" target="ZU2mIR0JqzNXLWRJzjO4-7">
          <mxGeometry relative="1" as="geometry" />
        </mxCell>
        <mxCell id="ZU2mIR0JqzNXLWRJzjO4-8" value="コード" style="rounded=0;whiteSpace=wrap;html=1;" vertex="1" parent="1">
          <mxGeometry x="374" y="730" width="80" height="40" as="geometry" />
        </mxCell>
        <mxCell id="ZU2mIR0JqzNXLWRJzjO4-13" style="edgeStyle=orthogonalEdgeStyle;rounded=0;orthogonalLoop=1;jettySize=auto;html=1;exitX=0.5;exitY=1;exitDx=0;exitDy=0;entryX=0.75;entryY=0;entryDx=0;entryDy=0;" edge="1" parent="1" source="ZU2mIR0JqzNXLWRJzjO4-9" target="ZU2mIR0JqzNXLWRJzjO4-7">
          <mxGeometry relative="1" as="geometry" />
        </mxCell>
        <mxCell id="ZU2mIR0JqzNXLWRJzjO4-9" value="コード" style="rounded=0;whiteSpace=wrap;html=1;" vertex="1" parent="1">
          <mxGeometry x="499" y="730" width="80" height="40" as="geometry" />
        </mxCell>
        <mxCell id="ZU2mIR0JqzNXLWRJzjO4-16" style="edgeStyle=orthogonalEdgeStyle;rounded=0;orthogonalLoop=1;jettySize=auto;html=1;exitX=0.5;exitY=1;exitDx=0;exitDy=0;entryX=0.5;entryY=0;entryDx=0;entryDy=0;" edge="1" parent="1" source="ZU2mIR0JqzNXLWRJzjO4-10" target="ZU2mIR0JqzNXLWRJzjO4-8">
          <mxGeometry relative="1" as="geometry" />
        </mxCell>
        <mxCell id="ZU2mIR0JqzNXLWRJzjO4-10" value="チケット" style="rounded=0;whiteSpace=wrap;html=1;" vertex="1" parent="1">
          <mxGeometry x="374" y="640" width="80" height="40" as="geometry" />
        </mxCell>
        <mxCell id="ZU2mIR0JqzNXLWRJzjO4-17" style="edgeStyle=orthogonalEdgeStyle;rounded=0;orthogonalLoop=1;jettySize=auto;html=1;exitX=0.5;exitY=1;exitDx=0;exitDy=0;entryX=0.5;entryY=0;entryDx=0;entryDy=0;" edge="1" parent="1" source="ZU2mIR0JqzNXLWRJzjO4-11" target="ZU2mIR0JqzNXLWRJzjO4-9">
          <mxGeometry relative="1" as="geometry" />
        </mxCell>
        <mxCell id="ZU2mIR0JqzNXLWRJzjO4-11" value="チケット" style="rounded=0;whiteSpace=wrap;html=1;" vertex="1" parent="1">
          <mxGeometry x="499" y="640" width="80" height="40" as="geometry" />
        </mxCell>
        <mxCell id="ZU2mIR0JqzNXLWRJzjO4-19" value="" style="rounded=1;whiteSpace=wrap;html=1;" vertex="1" parent="1">
          <mxGeometry x="720" y="320" width="270" height="250" as="geometry" />
        </mxCell>
        <mxCell id="ZU2mIR0JqzNXLWRJzjO4-22" value="実装" style="text;html=1;align=center;verticalAlign=middle;resizable=0;points=[];autosize=1;strokeColor=none;fillColor=none;" vertex="1" parent="1">
          <mxGeometry x="279" y="690" width="50" height="30" as="geometry" />
        </mxCell>
        <mxCell id="ZU2mIR0JqzNXLWRJzjO4-23" value="実装" style="text;html=1;align=center;verticalAlign=middle;resizable=0;points=[];autosize=1;strokeColor=none;fillColor=none;" vertex="1" parent="1">
          <mxGeometry x="404" y="690" width="50" height="30" as="geometry" />
        </mxCell>
        <mxCell id="ZU2mIR0JqzNXLWRJzjO4-24" value="実装" style="text;html=1;align=center;verticalAlign=middle;resizable=0;points=[];autosize=1;strokeColor=none;fillColor=none;" vertex="1" parent="1">
          <mxGeometry x="529" y="690" width="50" height="30" as="geometry" />
        </mxCell>
        <mxCell id="ZU2mIR0JqzNXLWRJzjO4-25" value="テスト" style="text;html=1;align=center;verticalAlign=middle;resizable=0;points=[];autosize=1;strokeColor=none;fillColor=none;" vertex="1" parent="1">
          <mxGeometry x="529" y="780" width="60" height="30" as="geometry" />
        </mxCell>
        <mxCell id="ZU2mIR0JqzNXLWRJzjO4-26" value="リリース" style="text;html=1;align=center;verticalAlign=middle;resizable=0;points=[];autosize=1;strokeColor=none;fillColor=none;" vertex="1" parent="1">
          <mxGeometry x="529" y="820" width="70" height="30" as="geometry" />
        </mxCell>
        <mxCell id="ZU2mIR0JqzNXLWRJzjO4-27" value="テスト" style="text;html=1;align=center;verticalAlign=middle;resizable=0;points=[];autosize=1;strokeColor=none;fillColor=none;" vertex="1" parent="1">
          <mxGeometry x="404" y="780" width="60" height="30" as="geometry" />
        </mxCell>
        <mxCell id="ZU2mIR0JqzNXLWRJzjO4-28" value="リリース" style="text;html=1;align=center;verticalAlign=middle;resizable=0;points=[];autosize=1;strokeColor=none;fillColor=none;" vertex="1" parent="1">
          <mxGeometry x="404" y="820" width="70" height="30" as="geometry" />
        </mxCell>
        <mxCell id="ZU2mIR0JqzNXLWRJzjO4-29" value="リリース" style="text;html=1;align=center;verticalAlign=middle;resizable=0;points=[];autosize=1;strokeColor=none;fillColor=none;" vertex="1" parent="1">
          <mxGeometry x="279" y="820" width="70" height="30" as="geometry" />
        </mxCell>
        <mxCell id="ZU2mIR0JqzNXLWRJzjO4-30" value="テスト" style="text;html=1;align=center;verticalAlign=middle;resizable=0;points=[];autosize=1;strokeColor=none;fillColor=none;" vertex="1" parent="1">
          <mxGeometry x="279" y="780" width="60" height="30" as="geometry" />
        </mxCell>
        <mxCell id="ZU2mIR0JqzNXLWRJzjO4-39" style="edgeStyle=orthogonalEdgeStyle;rounded=0;orthogonalLoop=1;jettySize=auto;html=1;entryX=0.5;entryY=0;entryDx=0;entryDy=0;" edge="1" parent="1" target="ZU2mIR0JqzNXLWRJzjO4-3">
          <mxGeometry relative="1" as="geometry">
            <mxPoint x="354" y="560" as="sourcePoint" />
            <Array as="points">
              <mxPoint x="354" y="600" />
              <mxPoint x="289" y="600" />
            </Array>
          </mxGeometry>
        </mxCell>
        <mxCell id="ZU2mIR0JqzNXLWRJzjO4-33" value="開発者" style="shape=umlActor;verticalLabelPosition=bottom;verticalAlign=top;html=1;outlineConnect=0;" vertex="1" parent="1">
          <mxGeometry x="339" y="480" width="30" height="60" as="geometry" />
        </mxCell>
        <mxCell id="ZU2mIR0JqzNXLWRJzjO4-43" value="" style="edgeStyle=orthogonalEdgeStyle;rounded=0;orthogonalLoop=1;jettySize=auto;html=1;" edge="1" parent="1" target="ZU2mIR0JqzNXLWRJzjO4-10">
          <mxGeometry relative="1" as="geometry">
            <mxPoint x="414" y="560" as="sourcePoint" />
          </mxGeometry>
        </mxCell>
        <mxCell id="ZU2mIR0JqzNXLWRJzjO4-34" value="開発者" style="shape=umlActor;verticalLabelPosition=bottom;verticalAlign=top;html=1;outlineConnect=0;" vertex="1" parent="1">
          <mxGeometry x="399" y="480" width="30" height="60" as="geometry" />
        </mxCell>
        <mxCell id="ZU2mIR0JqzNXLWRJzjO4-41" style="edgeStyle=orthogonalEdgeStyle;rounded=0;orthogonalLoop=1;jettySize=auto;html=1;entryX=0.5;entryY=0;entryDx=0;entryDy=0;" edge="1" parent="1" target="ZU2mIR0JqzNXLWRJzjO4-11">
          <mxGeometry relative="1" as="geometry">
            <mxPoint x="480" y="560" as="sourcePoint" />
            <Array as="points">
              <mxPoint x="480" y="600" />
              <mxPoint x="539" y="600" />
            </Array>
          </mxGeometry>
        </mxCell>
        <mxCell id="ZU2mIR0JqzNXLWRJzjO4-35" value="開発者" style="shape=umlActor;verticalLabelPosition=bottom;verticalAlign=top;html=1;outlineConnect=0;" vertex="1" parent="1">
          <mxGeometry x="460" y="480" width="30" height="60" as="geometry" />
        </mxCell>
        <mxCell id="ZU2mIR0JqzNXLWRJzjO4-37" value="チームリーダー" style="shape=umlActor;verticalLabelPosition=bottom;verticalAlign=top;html=1;outlineConnect=0;" vertex="1" parent="1">
          <mxGeometry x="399" y="380" width="30" height="60" as="geometry" />
        </mxCell>
        <mxCell id="ZU2mIR0JqzNXLWRJzjO4-44" value="開発チーム" style="text;html=1;align=center;verticalAlign=middle;resizable=0;points=[];autosize=1;strokeColor=none;fillColor=none;" vertex="1" parent="1">
          <mxGeometry x="374.5" y="338" width="80" height="30" as="geometry" />
        </mxCell>
        <mxCell id="ZU2mIR0JqzNXLWRJzjO4-45" value="開発者" style="shape=umlActor;verticalLabelPosition=bottom;verticalAlign=top;html=1;outlineConnect=0;" vertex="1" parent="1">
          <mxGeometry x="750" y="480" width="30" height="60" as="geometry" />
        </mxCell>
        <mxCell id="ZU2mIR0JqzNXLWRJzjO4-46" value="開発者" style="shape=umlActor;verticalLabelPosition=bottom;verticalAlign=top;html=1;outlineConnect=0;" vertex="1" parent="1">
          <mxGeometry x="930" y="480" width="30" height="60" as="geometry" />
        </mxCell>
        <mxCell id="ZU2mIR0JqzNXLWRJzjO4-47" value="チームリーダー" style="shape=umlActor;verticalLabelPosition=bottom;verticalAlign=top;html=1;outlineConnect=0;" vertex="1" parent="1">
          <mxGeometry x="840" y="340" width="30" height="60" as="geometry" />
        </mxCell>
        <mxCell id="ZU2mIR0JqzNXLWRJzjO4-48" value="開発チーム" style="text;html=1;align=center;verticalAlign=middle;resizable=0;points=[];autosize=1;strokeColor=none;fillColor=none;" vertex="1" parent="1">
          <mxGeometry x="815" y="300" width="80" height="30" as="geometry" />
        </mxCell>
        <mxCell id="ZU2mIR0JqzNXLWRJzjO4-50" value="" style="endArrow=classic;startArrow=classic;html=1;rounded=0;" edge="1" parent="1" target="ZU2mIR0JqzNXLWRJzjO4-46">
          <mxGeometry width="50" height="50" relative="1" as="geometry">
            <mxPoint x="780" y="510" as="sourcePoint" />
            <mxPoint x="830" y="460" as="targetPoint" />
          </mxGeometry>
        </mxCell>
        <mxCell id="ZU2mIR0JqzNXLWRJzjO4-51" value="" style="endArrow=classic;html=1;rounded=0;" edge="1" parent="1" target="ZU2mIR0JqzNXLWRJzjO4-46">
          <mxGeometry width="50" height="50" relative="1" as="geometry">
            <mxPoint x="890" y="420" as="sourcePoint" />
            <mxPoint x="940" y="370" as="targetPoint" />
          </mxGeometry>
        </mxCell>
        <mxCell id="ZU2mIR0JqzNXLWRJzjO4-55" value="" style="endArrow=classic;html=1;rounded=0;" edge="1" parent="1">
          <mxGeometry width="50" height="50" relative="1" as="geometry">
            <mxPoint x="780" y="490" as="sourcePoint" />
            <mxPoint x="830" y="417.0000000000001" as="targetPoint" />
          </mxGeometry>
        </mxCell>
        <mxCell id="ZU2mIR0JqzNXLWRJzjO4-56" value="" style="endArrow=classic;startArrow=classic;html=1;rounded=0;exitX=0.995;exitY=0.572;exitDx=0;exitDy=0;exitPerimeter=0;" edge="1" parent="1" source="ZU2mIR0JqzNXLWRJzjO4-2">
          <mxGeometry width="50" height="50" relative="1" as="geometry">
            <mxPoint x="529" y="480" as="sourcePoint" />
            <mxPoint x="710" y="480" as="targetPoint" />
          </mxGeometry>
        </mxCell>
      </root>
    </mxGraphModel>
  </diagram>
</mxfile>
